<?xml version="1.0" encoding="UTF-8" standalone="no"?>
<!DOCTYPE svg PUBLIC "-//W3C//DTD SVG 1.1//EN" "http://www.w3.org/Graphics/SVG/1.1/DTD/svg11.dtd">
<svg width="100%" height="100%" viewBox="0 0 20 20" version="1.1" xmlns="http://www.w3.org/2000/svg" xmlns:xlink="http://www.w3.org/1999/xlink" xml:space="preserve" xmlns:serif="http://www.serif.com/" style="fill-rule:evenodd;clip-rule:evenodd;stroke-linejoin:round;stroke-miterlimit:2;">
    <g transform="matrix(1,0,0,1,2,2)">
        <g id="icon---check-circle" serif:id="icon-/-check-circle">
            <g id="sm-check-circle">
                <g>
                    <path id="Shape" d="M8,16C12.418,16 16,12.418 16,8C16,3.582 12.418,0 8,0C3.582,0 0,3.582 0,8C0,12.418 3.582,16 8,16ZM11.707,6.707C12.098,6.317 12.098,5.683 11.707,5.293C11.317,4.902 10.683,4.902 10.293,5.293L7,8.586L5.707,7.293C5.317,6.902 4.683,6.902 4.293,7.293C3.902,7.683 3.902,8.317 4.293,8.707L6.293,10.707C6.683,11.098 7.317,11.098 7.707,10.707L11.707,6.707Z" style="fill:rgb(4,108,78);"/>
                </g>
            </g>
        </g>
    </g>
</svg>
