<?xml version="1.0" encoding="UTF-8" standalone="no"?>
<!DOCTYPE svg PUBLIC "-//W3C//DTD SVG 1.1//EN" "http://www.w3.org/Graphics/SVG/1.1/DTD/svg11.dtd">
<svg width="100%" height="100%" viewBox="0 0 20 20" version="1.1" xmlns="http://www.w3.org/2000/svg" xmlns:xlink="http://www.w3.org/1999/xlink" xml:space="preserve" xmlns:serif="http://www.serif.com/" style="fill-rule:evenodd;clip-rule:evenodd;stroke-linejoin:round;stroke-miterlimit:2;">
    <g transform="matrix(1,0,0,1,2,2)">
        <g id="icon---information" serif:id="icon-/-information">
            <g id="sm-information-circle">
                <g>
                    <path id="Shape" d="M16,8C16,12.418 12.418,16 8,16C3.582,16 0,12.418 0,8C0,3.582 3.582,0 8,0C12.418,0 16,3.582 16,8ZM9,4C9,4.552 8.552,5 8,5C7.448,5 7,4.552 7,4C7,3.448 7.448,3 8,3C8.552,3 9,3.448 9,4ZM7,7C6.448,7 6,7.448 6,8C6,8.552 6.448,9 7,9L7,12C7,12.552 7.448,13 8,13L9,13C9.552,13 10,12.552 10,12C10,11.448 9.552,11 9,11L9,8C9,7.448 8.552,7 8,7L7,7Z" style="fill:rgb(37,99,235);"/>
                </g>
            </g>
        </g>
    </g>
</svg>
