<?xml version="1.0" encoding="UTF-8"?>
<svg width="20px" height="20px" viewBox="0 0 20 20" version="1.1" xmlns="http://www.w3.org/2000/svg" xmlns:xlink="http://www.w3.org/1999/xlink">
    <title>icon / information</title>
    <defs>
        <filter id="filter-1">
            <feColorMatrix in="SourceGraphic" type="matrix" values="0 0 0 0 0.419608 0 0 0 0 0.447059 0 0 0 0 0.501961 0 0 0 1.000000 0"></feColorMatrix>
        </filter>
    </defs>
    <g id="icon-/-information" stroke="none" stroke-width="1" fill="none" fill-rule="evenodd">
        <g filter="url(#filter-1)" id="sm-information-circle">
            <g transform="translate(2.000000, 2.000000)">
                <path d="M16,8 C16,12.4183 12.4183,16 8,16 C3.58172,16 0,12.4183 0,8 C0,3.58172 3.58172,0 8,0 C12.4183,0 16,3.58172 16,8 Z M9,4 C9,4.55228 8.5523,5 8,5 C7.44772,5 7,4.55228 7,4 C7,3.44772 7.44772,3 8,3 C8.5523,3 9,3.44772 9,4 Z M7,7 C6.44772,7 6,7.44772 6,8 C6,8.5523 6.44772,9 7,9 L7,12 C7,12.5523 7.44772,13 8,13 L9,13 C9.5523,13 10,12.5523 10,12 C10,11.4477 9.5523,11 9,11 L9,8 C9,7.44772 8.5523,7 8,7 L7,7 Z" id="Shape" fill="#4A5568"></path>
            </g>
        </g>
    </g>
</svg>