<?xml version="1.0" encoding="UTF-8" standalone="no"?>
<!DOCTYPE svg PUBLIC "-//W3C//DTD SVG 1.1//EN" "http://www.w3.org/Graphics/SVG/1.1/DTD/svg11.dtd">
<svg width="100%" height="100%" viewBox="0 0 20 20" version="1.1" xmlns="http://www.w3.org/2000/svg" xmlns:xlink="http://www.w3.org/1999/xlink" xml:space="preserve" xmlns:serif="http://www.serif.com/" style="fill-rule:evenodd;clip-rule:evenodd;stroke-linejoin:round;stroke-miterlimit:2;">
    <g transform="matrix(1,0,0,1,2,2)">
        <g id="icon---exlamation-circle" serif:id="icon-/-exlamation-circle">
            <g id="sm-exclamation-circle">
                <g>
                    <path id="Shape" d="M16,8C16,12.418 12.418,16 8,16C3.582,16 0,12.418 0,8C0,3.582 3.582,0 8,0C12.418,0 16,3.582 16,8ZM9,12C9,12.552 8.552,13 8,13C7.448,13 7,12.552 7,12C7,11.448 7.448,11 8,11C8.552,11 9,11.448 9,12ZM8,3C7.448,3 7,3.448 7,4L7,8C7,8.552 7.448,9 8,9C8.552,9 9,8.552 9,8L9,4C9,3.448 8.552,3 8,3Z" style="fill:rgb(224,36,36);"/>
                </g>
            </g>
        </g>
    </g>
</svg>
